<svg  width="53" height="17" viewBox="0 0 53 17" fill="none" xmlns="http://www.w3.org/2000/svg"><path d="M34.5208 0C30.7576 0 27.3947 1.93096 27.3947 5.49855C27.3947 9.58991 33.359 9.8725 33.359 11.9279C33.359 12.7933 32.3572 13.568 30.6461 13.568C28.2177 13.568 26.4027 12.4855 26.4027 12.4855L25.6261 16.0856C25.6261 16.0856 27.7169 17 30.4928 17C34.6072 17 37.8447 14.9742 37.8447 11.3456C37.8447 7.02238 31.8555 6.74819 31.8555 4.84045C31.8555 4.1625 32.6779 3.41968 34.3841 3.41968C36.3093 3.41968 37.8799 4.20695 37.8799 4.20695L38.64 0.72986C38.64 0.72986 36.931 0 34.5208 0ZM0.0911222 0.262422L0 0.787265C0 0.787265 1.58319 1.0741 3.0091 1.64629C4.84509 2.30241 4.97588 2.68437 5.28509 3.87072L8.65454 16.7294H13.1713L20.1297 0.262422H15.6233L11.1521 11.4584L9.3276 1.96816C9.16028 0.882013 8.31273 0.262422 7.27528 0.262422H0.0911222ZM21.9418 0.262422L18.4067 16.7294H22.7039L26.2266 0.262422H21.9418ZM45.909 0.262422C44.8728 0.262422 44.3238 0.811626 43.9209 1.77135L37.6252 16.7294H42.1316L43.0035 14.2364H48.4936L49.0238 16.7294H53L49.5311 0.262422H45.909ZM46.4951 4.71129L47.8309 10.8905H44.2523L46.4951 4.71129Z" fill="#1434CB"></path></svg>